<?xml version="1.0" encoding="utf-8"?>
<!-- Uploaded to: SVG Repo, www.svgrepo.com, Generator: SVG Repo Mixer Tools -->
<svg width="800px" height="800px" viewBox="0 0 1024 1024" class="icon"  version="1.1" xmlns="http://www.w3.org/2000/svg"><path d="M418.9 667.6h185.4v20.6H418.9z" fill="#79ACF9" /><path d="M212.9 399.9h20.6v309h-20.6z" fill="#446EB1" /><path d="M233.5 564.6h556.1v20.6H233.5z" fill="#FFFFFF" /><path d="M789.6 399.9h20.6v309h-20.6z" fill="#446EB1" /><path d="M233.5 399.9h576.7v20.6H233.5z" fill="#446EB1" /><path d="M233.5 420.5h556.1v82.4H233.5z" fill="#F8FCFF" /><path d="M233.5 502.8h556.1v82.4H233.5z" fill="#E1F0FF" /><path d="M686.6 441h41.2v41.2h-41.2z" fill="#79ACF9" /><path d="M315.9 255.7h20.6v144.2h-20.6zM707.2 255.7h20.6v144.2h-20.6z" fill="#446EB1" /><path d="M336.5 276.3h370.7v123.6H336.5z" fill="#FFFFFF" /><path d="M336.5 255.7h391.3v20.6H336.5zM274.7 358.7h20.6v41.2h-20.6z" fill="#446EB1" /><path d="M274.7 358.7h41.2v20.6h-41.2zM727.8 358.7H769v20.6h-41.2z" fill="#446EB1" /><path d="M748.4 358.7H769v41.2h-20.6z" fill="#446EB1" /><path d="M233.5 585.2h556.1v20.6H233.5z" fill="#79ACF9" /><path d="M233.5 605.8h556.1v20.6H233.5z" fill="#6D9EE8" /><path d="M233.5 626.4h61.8v61.8h-61.8zM727.8 626.4h61.8v61.8h-61.8zM295.3 626.4h432.5V647H295.3z" fill="#446EB1" /><path d="M212.9 688.2h103v20.6h-103zM707.2 688.2h103v20.6h-103z" fill="#6D9EE8" /><path d="M295.3 647h20.6v144.2h-20.6zM707.2 647h20.6v144.2h-20.6z" fill="#446EB1" /><path d="M315.9 770.6h391.3v20.6H315.9z" fill="#446EB1" /><path d="M398.3 708.8h226.6v20.6H398.3z" fill="#79ACF9" /></svg>